<svg width="148" height="116" viewBox="0 0 148 116" fill="none"
    xmlns="http://www.w3.org/2000/svg">
    <path d="M0.06314 92.083C1.22396 92.083 2.34014 92.083 3.59026 92.083C5.10826 94.5832 6.62626 97.1281 8.14426 99.673C9.66226 102.173 11.1356 104.718 12.7429 107.397C13.9037 105.656 14.7967 103.959 15.8236 102.263C16.8058 100.611 17.788 98.914 18.7703 97.2621C19.7525 95.5655 20.7794 93.8689 21.7616 92.1277C22.9225 92.1277 24.0833 92.1277 25.2887 92.1277C25.2887 99.807 25.2887 107.442 25.2887 115.21C24.6637 115.21 24.0386 115.255 23.4136 115.255C22.7885 115.255 22.1635 115.255 21.4937 115.255C21.4491 114.987 21.4045 114.808 21.4045 114.585C21.3598 110.254 21.3152 105.924 21.2259 101.593C21.2259 101.236 21.2259 100.923 21.0919 100.521C20.7794 101.012 20.4222 101.504 20.1097 101.995C18.1006 105.299 16.0914 108.647 14.0823 111.951C13.8144 112.397 13.5019 112.665 12.9661 112.576C12.609 112.531 12.2071 112.576 11.7607 112.576C9.30509 108.602 6.8495 104.629 4.39391 100.655C4.34926 100.655 4.30461 100.655 4.25997 100.655C4.25997 101.593 4.25997 102.53 4.25997 103.513C4.25997 104.495 4.25997 105.477 4.25997 106.415C4.25997 107.352 4.25997 108.29 4.25997 109.227C4.25997 110.21 4.25997 111.192 4.25997 112.13C4.25997 113.112 4.25997 114.049 4.25997 115.076C2.83126 115.076 1.49185 115.076 0.152433 115.076L0.107786 115.032C0.107786 114.987 0.06314 114.987 0.06314 114.942C0.06314 114.764 0.0184936 114.585 0.0184936 114.362C0.0184936 106.995 0.0184936 99.673 0.0184936 92.3062C-0.0261535 92.3062 0.0184929 92.2169 0.06314 92.083Z" fill="white"/>
    <path d="M120.879 99.5836C120.879 96.5029 120.879 93.5562 120.879 90.5649C122.263 90.5649 123.602 90.5649 124.897 90.5649C125.075 91.2346 125.165 113.469 124.986 115.031C124.316 115.255 122.129 115.255 121.147 115.076C121.147 114.808 121.102 114.496 121.102 114.183C121.102 113.871 121.102 113.558 121.102 113.112C120.834 113.246 120.655 113.335 120.566 113.424C119.361 114.719 117.753 115.21 116.101 115.344C113.646 115.523 111.369 115.031 109.404 113.424C108.199 112.442 107.351 111.192 106.859 109.763C105.699 106.281 106.1 103.021 108.467 100.119C109.538 98.8246 111.012 98.0209 112.664 97.6191C114.494 97.1726 116.325 97.1727 118.11 97.7977C119.003 98.1102 119.762 98.5567 120.432 99.1818C120.477 99.2711 120.611 99.3604 120.879 99.5836ZM120.879 106.37C120.879 106.236 120.879 106.102 120.879 106.013C120.968 103.914 119.495 101.459 116.816 100.968C116.28 100.878 115.7 100.878 115.119 100.878C114.003 100.878 113.065 101.325 112.217 102.039C110.342 103.691 109.985 105.834 110.61 108.111C111.369 110.879 113.824 112.308 116.816 111.728C117.709 111.549 118.468 111.192 119.137 110.567C120.388 109.451 120.968 108.022 120.879 106.37Z" fill="white"/>
    <path d="M69.5346 109.049C70.4276 109.852 71.3205 110.656 72.2134 111.46C71.5884 112.353 70.8294 112.978 69.9811 113.469C67.972 114.719 65.7843 115.344 63.3733 115.389C61.4088 115.433 59.5337 115.121 57.7031 114.362C54.31 112.933 52.0776 110.433 51.0507 106.906C50.0685 103.379 50.5596 99.9855 52.658 96.9495C54.2653 94.5832 56.5423 93.1098 59.3104 92.3508C62.2571 91.5472 65.2039 91.6811 68.0613 92.7973C69.4453 93.3331 71.008 94.3599 72.1688 95.9672C71.7223 96.3691 71.3205 96.7709 70.874 97.1281C70.4276 97.5299 69.9811 97.9317 69.49 98.3782C68.9989 97.9763 68.5077 97.5299 67.972 97.1727C66.0968 95.7886 63.9984 95.3868 61.7214 95.744C59.8908 96.0119 58.2836 96.7709 57.0334 98.1103C55.8726 99.3158 55.2476 100.789 55.0243 102.441C54.8011 104.093 55.0243 105.611 55.6494 107.129C56.1405 108.29 56.8995 109.272 57.971 110.031C61.141 112.308 65.695 112.263 68.6417 109.719C68.9542 109.451 69.2221 109.272 69.5346 109.049Z" fill="white"/>
    <path d="M47.9249 107.665C43.2369 107.665 38.6829 107.665 34.0843 107.665C34.1289 108.558 34.4414 109.183 34.9326 109.763C36.0934 111.147 37.5667 111.817 39.3973 111.817C40.4242 111.817 41.4064 111.817 42.344 111.37C43.103 111.013 43.8173 110.567 44.5763 110.12C45.0675 110.478 46.3622 111.996 46.6747 112.621C45.8711 113.647 44.7996 114.362 43.5495 114.764C39.9777 115.924 36.4952 115.746 33.3253 113.514C31.1822 111.996 30.0214 109.808 29.8874 107.129C29.7981 105.388 29.9767 103.691 30.825 102.129C32.0751 99.6283 34.1289 98.1549 36.8077 97.5745C38.9955 97.0834 41.1832 97.262 43.2369 98.2889C45.9157 99.6283 47.3445 101.861 47.8356 104.763C47.9695 105.656 47.9695 106.549 47.9249 107.665ZM43.9066 104.807C43.5941 101.861 40.7813 100.432 38.2811 100.744C35.8702 101.057 33.9503 102.932 34.1289 104.807C37.3435 104.807 40.6027 104.807 43.9066 104.807Z" fill="white"/>
    <path d="M147.8 106.147C147.89 109.629 146.506 112.129 143.871 113.915C142.621 114.764 141.148 115.21 139.63 115.344C137.531 115.523 135.522 115.255 133.603 114.228C131.147 112.933 129.718 110.924 129.138 108.29C128.513 105.343 129.138 102.664 131.102 100.387C132.442 98.8246 134.183 97.9317 136.147 97.5298C138.112 97.128 140.076 97.2173 141.952 97.887C145.211 99.0478 147.8 102.128 147.756 105.968C147.8 106.102 147.8 106.236 147.8 106.147ZM138.469 100.878C138.335 100.878 138.246 100.878 138.157 100.878C135.79 100.834 133.826 102.575 133.335 104.941C133.156 105.879 133.111 106.816 133.335 107.709C133.603 109.004 134.183 110.12 135.299 110.879C136.371 111.638 137.487 111.862 138.737 111.817C140.657 111.728 142.041 110.879 142.978 109.227C143.693 107.977 143.782 106.638 143.603 105.298C143.47 104.227 143.023 103.245 142.264 102.441C141.237 101.325 139.987 100.789 138.469 100.878Z" fill="white"/>
    <path d="M88.4644 97.5299C89.8931 97.5299 91.1432 97.5299 92.4379 97.5299C92.4826 97.5746 92.5272 97.5746 92.5272 97.6192C92.5272 97.6638 92.5719 97.6638 92.5719 97.7085C92.5719 97.9317 92.6165 98.155 92.6165 98.3782C92.6165 103.914 92.6165 109.406 92.5719 114.942C92.5719 114.987 92.5272 115.032 92.4826 115.166C91.2771 115.166 90.027 115.166 88.6876 115.166C88.6876 114.54 88.6876 113.915 88.6876 113.246C88.509 113.335 88.3751 113.335 88.3304 113.424C87.1696 114.63 85.6516 115.21 84.0443 115.389C81.9459 115.612 79.9367 115.299 78.1062 114.094C77.124 113.424 76.4096 112.531 76.0078 111.415C75.5167 110.12 75.2935 108.736 75.2935 107.352C75.2935 104.45 75.2935 101.593 75.2935 98.6907C75.2935 98.3336 75.2935 98.021 75.2935 97.6192C76.7668 97.6192 78.1062 97.6192 79.5796 97.6192C79.5796 98.021 79.5796 98.3336 79.5796 98.6907C79.5796 101.727 79.5796 104.763 79.5796 107.843C79.5796 108.558 79.7135 109.272 80.0261 109.942C80.6065 111.013 81.4548 111.638 82.6602 111.862C84.8033 112.219 87.1696 111.371 88.0179 109.094C88.2858 108.424 88.3751 107.709 88.4197 106.995C88.4643 104.272 88.4197 101.548 88.4197 98.8247C88.4643 98.3336 88.4644 97.9764 88.4644 97.5299Z" fill="white"/>
    <path d="M102.171 97.4852C102.171 103.423 102.171 109.227 102.171 115.121C100.831 115.121 99.5366 115.121 98.2418 115.121C98.0632 114.406 98.0186 98.8693 98.1972 97.5745C98.8222 97.3513 99.492 97.4852 100.117 97.4852C100.742 97.4852 101.412 97.4852 102.171 97.4852Z" fill="white"/>
    <path d="M102.797 92.1276C102.886 93.7795 101.457 94.6724 100.163 94.6724C98.6892 94.6724 97.5283 93.6009 97.5283 92.2168C97.5283 90.8328 98.6891 89.8059 100.207 89.8059C101.681 89.7613 102.797 90.7435 102.797 92.1276Z" fill="white"/>
    <path d="M62.1304 26.8164C60.2552 24.8104 58.2412 23.3394 56.7827 21.4002C53.3797 16.9871 55.5327 10.8354 60.9497 9.29746C62.0609 8.96313 63.5888 9.43119 64.2833 8.8294C64.9778 8.16073 64.4222 6.68968 64.7694 5.61982C65.9501 2.54397 68.0336 0.671719 71.2977 0.13679C74.909 -0.465006 77.7565 0.939184 79.4927 3.94816C82.6874 9.56492 85.6737 15.2486 88.7989 20.8653C90.9519 24.8773 93.1743 28.8893 95.3272 32.9012C96.0911 34.3723 96.8551 35.8433 96.8551 37.5819C96.8551 42.6637 97.2718 47.8124 96.0911 52.8942C93.5215 63.994 81.5762 72.3523 69.8392 71.483C56.6438 70.5469 44.9069 59.982 45.8792 44.1348C45.9486 42.5968 46.0875 41.0589 46.9904 39.7216C47.3376 39.1867 47.1293 38.8523 46.9209 38.3843C44.0735 32.6338 47.7543 26.8833 54.4215 26.7495C56.8522 26.7495 59.3524 26.8164 62.1304 26.8164ZM73.2423 31.2296C72.5478 31.2296 71.7838 31.2964 71.0893 31.2964C65.4639 31.2964 59.908 31.2964 54.2826 31.2964C52.5463 31.2964 51.1573 32.2326 50.7406 33.6368C50.324 35.0409 50.6712 36.3114 51.8518 37.2475C52.6852 37.9162 53.6575 37.9831 54.6298 37.9831C58.7273 37.9831 62.8248 37.9162 66.9224 37.9831C72.1311 38.1168 76.0897 42.1288 76.0202 47.01C75.9508 51.8912 71.9922 55.7695 66.9918 55.9032C61.922 56.0369 57.755 52.2256 57.5467 47.2775C57.4772 46.007 57.6161 44.7365 57.4772 43.4661C57.3383 41.5938 55.8105 40.2565 54.0048 40.2565C52.1296 40.2565 50.6712 41.5938 50.6017 43.533C50.4629 45.9401 50.5323 48.3473 50.949 50.6876C52.7547 60.0489 61.297 66.9361 71.2977 67.0699C81.1595 67.2036 89.9796 60.3832 91.9242 51.022C92.6187 47.6118 92.202 44.1348 92.4103 40.6577C92.5492 38.1168 91.9242 35.9102 90.6741 33.6368C85.7432 24.7436 80.9511 15.8503 76.1591 6.89028C75.6035 5.82042 74.909 4.88429 73.5895 4.61683C72.2005 4.28249 70.9504 4.61683 70.0476 5.75355C69.1447 6.89028 69.0753 8.2276 69.7698 9.49806C71.7144 13.2426 73.7284 16.9871 75.6035 20.7984C76.3675 22.3364 77.4092 23.7406 77.7565 25.4122C77.1314 25.2785 76.8536 24.8104 76.5064 24.4092C73.0339 21.4002 69.8392 18.3244 66.6446 15.2486C66.1584 14.7805 65.6028 14.3124 64.9778 13.9112C63.5193 13.042 61.9915 13.2426 60.7414 14.4462C59.6302 15.516 59.4218 17.1208 60.2552 18.3913C60.6025 18.9931 61.1581 19.4611 61.6442 19.9292C65.5334 23.7406 69.4225 27.4851 73.2423 31.2296ZM62.1998 45.2046C62.1998 45.8733 62.1304 46.6088 62.1998 47.2775C62.3387 49.484 64.2833 51.2226 66.5057 51.3563C68.8669 51.49 70.881 49.9521 71.2977 47.6118C71.7144 45.5389 70.3948 43.4661 68.3114 42.7306C67.2696 42.3294 66.1584 42.3962 65.0472 42.3962C62.1304 42.3962 62.1304 42.3962 62.1998 45.2046Z" fill="#188ACB"/>
    <path d="M77.5478 25.479C77.1311 23.8074 76.1588 22.4032 75.3948 20.8653C73.5197 17.0539 71.5057 13.3094 69.5611 9.56489C68.8666 8.29444 68.936 6.95711 69.8389 5.82039C70.7417 4.68366 71.9918 4.34933 73.3808 4.68366C74.7003 4.95113 75.3948 5.88725 75.9504 6.95711C80.8119 15.8503 85.5345 24.8104 90.4654 33.7036C91.7155 35.977 92.3405 38.1836 92.2016 40.7245C91.9933 44.2016 92.4794 47.6786 91.7155 51.0888C89.7709 60.3832 80.9508 67.2704 71.089 67.1367C61.2272 66.9361 52.6849 60.0489 50.9486 50.6876C50.4625 48.2804 50.4625 45.9401 50.6014 43.5329C50.6708 41.5938 52.1293 40.2565 54.0044 40.2565C55.8101 40.2565 57.338 41.5269 57.4769 43.4661C57.6158 44.7365 57.4769 46.007 57.5463 47.2774C57.7547 52.2255 61.9217 56.0369 66.9915 55.9032C71.9918 55.7694 75.9504 51.8912 76.0199 47.01C76.0893 42.1287 72.1307 38.1168 66.922 37.983C62.8245 37.9162 58.727 37.983 54.6295 37.983C53.5877 37.983 52.6154 37.8493 51.8515 37.2475C50.6708 36.3114 50.3236 35.0409 50.7403 33.6367C51.157 32.2325 52.546 31.2964 54.2822 31.2964C59.9076 31.2964 65.4636 31.2964 71.089 31.2964C71.7835 31.2964 72.5474 31.2964 73.2419 31.2295C75.6726 31.2295 78.1034 31.2295 80.8119 31.2295C79.3535 29.2236 79.1451 27.017 77.5478 25.479Z" fill="white"/>
    <path d="M77.5476 25.4788C79.1449 27.0167 79.3533 29.2902 80.8117 31.2293C78.1032 31.2293 75.6725 31.2293 73.2417 31.2293C69.422 27.4848 65.6023 23.7403 61.7826 19.9958C61.2964 19.5277 60.7408 18.9928 60.3936 18.4579C59.5602 17.1874 59.7685 15.5826 60.8797 14.5127C62.1298 13.3092 63.6577 13.1086 65.1161 13.9778C65.7412 14.3121 66.2273 14.8471 66.7829 15.3151C69.9776 18.391 73.1723 21.4668 76.4364 24.5427C76.6447 24.877 76.9225 25.3451 77.5476 25.4788Z" fill="#D5EAF7"/>
</svg>
