<svg width="124" height="24" viewBox="0 0 124 24" fill="none"
    xmlns="http://www.w3.org/2000/svg">
    <path d="M24.7887 4.46326C25.5675 4.46326 26.3164 4.46326 27.1551 4.46326C28.1735 6.14068 29.1919 7.84806 30.2104 9.55543C31.2288 11.2329 32.2173 12.9402 33.2956 14.7375C34.0744 13.5693 34.6735 12.431 35.3625 11.2928C36.0214 10.1845 36.6804 9.04621 37.3394 7.93792C37.9984 6.79967 38.6873 5.66142 39.3463 4.49321C40.1251 4.49321 40.9039 4.49321 41.7127 4.49321C41.7127 9.64529 41.7127 14.7674 41.7127 19.9794C41.2933 19.9794 40.874 20.0094 40.4546 20.0094C40.0353 20.0094 39.6159 20.0094 39.1666 20.0094C39.1366 19.8296 39.1067 19.7098 39.1067 19.5601C39.0767 16.6545 39.0468 13.749 38.9869 10.8435C38.9869 10.6038 38.9869 10.3941 38.897 10.1246C38.6873 10.4541 38.4477 10.7835 38.238 11.113C36.8901 13.3296 35.5422 15.5762 34.1942 17.7928C34.0145 18.0923 33.8048 18.272 33.4454 18.2121C33.2058 18.1822 32.9362 18.2121 32.6366 18.2121C30.9892 15.5462 29.3417 12.8803 27.6942 10.2144C27.6643 10.2144 27.6343 10.2144 27.6044 10.2144C27.6044 10.8435 27.6044 11.4725 27.6044 12.1315C27.6044 12.7905 27.6044 13.4494 27.6044 14.0785C27.6044 14.7075 27.6044 15.3365 27.6044 15.9656C27.6044 16.6246 27.6044 17.2836 27.6044 17.9126C27.6044 18.5716 27.6044 19.2006 27.6044 19.8895C26.6458 19.8895 25.7472 19.8895 24.8486 19.8895L24.8187 19.8596C24.8187 19.8296 24.7887 19.8296 24.7887 19.7997C24.7887 19.6799 24.7587 19.5601 24.7587 19.4103C24.7587 14.4679 24.7587 9.55543 24.7587 4.61303C24.7288 4.61303 24.7587 4.55312 24.7887 4.46326Z" fill="#199AE3"/>
    <path d="M105.844 9.49547C105.844 7.42864 105.844 5.45168 105.844 3.44476C106.773 3.44476 107.671 3.44476 108.54 3.44476C108.66 3.89407 108.72 18.8111 108.6 19.8595C108.151 20.0093 106.683 20.0093 106.024 19.8895C106.024 19.7098 105.994 19.5001 105.994 19.2904C105.994 19.0807 105.994 18.8711 105.994 18.5715C105.814 18.6614 105.694 18.7213 105.634 18.7812C104.826 19.6499 103.747 19.9794 102.639 20.0692C100.992 20.189 99.4639 19.8595 98.1459 18.7812C97.3372 18.1222 96.7681 17.2835 96.4386 16.325C95.6598 13.9886 95.9294 11.8019 97.5169 9.85491C98.2358 8.98625 99.2243 8.44708 100.333 8.17749C101.561 7.87795 102.789 7.87795 103.987 8.29731C104.586 8.50698 105.095 8.80652 105.545 9.22588C105.575 9.28579 105.664 9.3457 105.844 9.49547ZM105.844 14.0485C105.844 13.9586 105.844 13.8687 105.844 13.8088C105.904 12.401 104.916 10.7535 103.118 10.424C102.759 10.3641 102.369 10.3641 101.98 10.3641C101.231 10.3641 100.602 10.6637 100.033 11.1429C98.775 12.2512 98.5354 13.689 98.9547 15.2167C99.4639 17.0738 101.111 18.0323 103.118 17.6429C103.717 17.5231 104.227 17.2835 104.676 16.8641C105.515 16.1153 105.904 15.1568 105.844 14.0485Z" fill="#199AE3"/>
    <path d="M71.3971 15.8457C71.9962 16.3849 72.5953 16.9241 73.1943 17.4632C72.775 18.0623 72.2658 18.4817 71.6966 18.8112C70.3487 19.6499 68.881 20.0692 67.2635 20.0992C65.9455 20.1291 64.6874 19.9195 63.4593 19.4102C61.1828 18.4517 59.6851 16.7743 58.9962 14.4079C58.3372 12.0416 58.6667 9.76506 60.0745 7.72819C61.1528 6.14063 62.6805 5.15215 64.5376 4.64293C66.5146 4.10376 68.4916 4.19362 70.4086 4.94247C71.3372 5.30192 72.3856 5.99086 73.1644 7.0692C72.8649 7.33879 72.5953 7.60838 72.2957 7.84801C71.9962 8.11759 71.6966 8.38718 71.3672 8.68672C71.0377 8.41713 70.7082 8.11759 70.3487 7.87796C69.0907 6.94939 67.6828 6.6798 66.1552 6.91943C64.927 7.09916 63.8487 7.60838 63.01 8.507C62.2312 9.31575 61.8118 10.3042 61.6621 11.4125C61.5123 12.5208 61.6621 13.5393 62.0814 14.5577C62.4109 15.3365 62.9201 15.9955 63.639 16.5047C65.7658 18.0324 68.8211 18.0024 70.798 16.295C71.0077 16.1153 71.1874 15.9955 71.3971 15.8457Z" fill="#199AE3"/>
    <path d="M56.8995 14.9171C53.7543 14.9171 50.699 14.9171 47.6138 14.9171C47.6437 15.5162 47.8534 15.9356 48.1829 16.325C48.9617 17.2535 49.9502 17.7029 51.1783 17.7029C51.8672 17.7029 52.5262 17.7029 53.1553 17.4033C53.6645 17.1637 54.1437 16.8641 54.653 16.5646C54.9824 16.8042 55.8511 17.8227 56.0608 18.242C55.5216 18.931 54.8027 19.4102 53.964 19.6798C51.5677 20.4586 49.2313 20.3388 47.1046 18.8411C45.6668 17.8227 44.888 16.3549 44.7981 14.5577C44.7382 13.3895 44.858 12.2512 45.4271 11.2028C46.2658 9.52543 47.6437 8.53694 49.441 8.14754C50.9087 7.81805 52.3764 7.93786 53.7543 8.62681C55.5516 9.52542 56.5101 11.0231 56.8396 12.9701C56.9295 13.5692 56.9295 14.1683 56.8995 14.9171ZM54.2036 13.0001C53.994 11.0231 52.1069 10.0646 50.4294 10.2743C48.8119 10.484 47.5239 11.742 47.6437 13.0001C49.8004 13.0001 51.987 13.0001 54.2036 13.0001Z" fill="#199AE3"/>
    <path d="M123.906 13.8987C123.966 16.2351 123.038 17.9125 121.27 19.1107C120.432 19.6798 119.443 19.9794 118.425 20.0692C117.017 20.189 115.669 20.0093 114.381 19.3204C112.734 18.4517 111.775 17.1038 111.386 15.3365C110.966 13.3595 111.386 11.5623 112.704 10.0346C113.602 8.98626 114.77 8.38718 116.088 8.11759C117.406 7.84801 118.724 7.90792 119.982 8.35723C122.169 9.13603 123.906 11.2029 123.876 13.7789C123.906 13.8688 123.906 13.9586 123.906 13.8987ZM117.646 10.3641C117.556 10.3641 117.496 10.3641 117.436 10.3641C115.849 10.3342 114.531 11.5024 114.201 13.09C114.081 13.719 114.051 14.348 114.201 14.9471C114.381 15.8158 114.77 16.5646 115.519 17.0738C116.238 17.583 116.987 17.7328 117.826 17.7029C119.114 17.643 120.042 17.0738 120.671 15.9655C121.151 15.1268 121.21 14.2282 121.091 13.3296C121.001 12.6107 120.701 11.9517 120.192 11.4125C119.503 10.6637 118.664 10.3042 117.646 10.3641Z" fill="#199AE3"/>
    <path d="M84.0977 8.11761C85.0562 8.11761 85.8949 8.11761 86.7636 8.11761C86.7935 8.14757 86.8235 8.14757 86.8235 8.17752C86.8235 8.20748 86.8534 8.20748 86.8534 8.23743C86.8534 8.3872 86.8834 8.53697 86.8834 8.68674C86.8834 12.401 86.8834 16.0854 86.8534 19.7997C86.8534 19.8296 86.8235 19.8596 86.7935 19.9494C85.9848 19.9494 85.146 19.9494 84.2474 19.9494C84.2474 19.5301 84.2474 19.1107 84.2474 18.6614C84.1276 18.7213 84.0377 18.7213 84.0078 18.7812C83.229 19.59 82.2106 19.9794 81.1322 20.0992C79.7244 20.249 78.3764 20.0393 77.1483 19.2305C76.4893 18.7812 76.0101 18.1821 75.7405 17.4333C75.411 16.5646 75.2612 15.6361 75.2612 14.7075C75.2612 12.7605 75.2612 10.8434 75.2612 8.89642C75.2612 8.65679 75.2612 8.44711 75.2612 8.17752C76.2497 8.17752 77.1483 8.17752 78.1368 8.17752C78.1368 8.44711 78.1368 8.65679 78.1368 8.89642C78.1368 10.9333 78.1368 12.9702 78.1368 15.037C78.1368 15.5162 78.2267 15.9955 78.4364 16.4448C78.8258 17.1637 79.3949 17.5831 80.2036 17.7328C81.6414 17.9725 83.229 17.4033 83.7981 15.8757C83.9778 15.4264 84.0377 14.9471 84.0677 14.4679C84.0976 12.6407 84.0677 10.8135 84.0677 8.98628C84.0976 8.65679 84.0977 8.41715 84.0977 8.11761Z" fill="#199AE3"/>
    <path d="M93.2935 8.08765C93.2935 12.0715 93.2935 15.9655 93.2935 19.9195C92.3948 19.9195 91.5262 19.9195 90.6575 19.9195C90.5377 19.4402 90.5077 9.01622 90.6275 8.14756C91.0469 7.99779 91.4962 8.08765 91.9156 8.08765C92.3349 8.08765 92.7842 8.08765 93.2935 8.08765Z" fill="#199AE3"/>
    <path d="M93.7128 4.49316C93.7727 5.60146 92.8142 6.20053 91.9455 6.20053C90.957 6.20053 90.1782 5.48164 90.1782 4.55307C90.1782 3.62449 90.957 2.93555 91.9755 2.93555C92.9639 2.9056 93.7128 3.56459 93.7128 4.49316Z" fill="#199AE3"/>
    <path d="M5.26886 8.66418C4.66302 8.01606 4.0123 7.54077 3.54109 6.91426C2.4416 5.4884 3.1372 3.50083 4.88741 3.00394C5.24643 2.89592 5.74008 3.04715 5.96446 2.85271C6.18885 2.63667 6.00934 2.16139 6.12153 1.81572C6.50299 0.821939 7.17615 0.217027 8.23076 0.0441957C9.39757 -0.15024 10.3175 0.303443 10.8785 1.27562C11.9107 3.09036 12.8755 4.92669 13.8853 6.74143C14.5809 8.03767 15.2989 9.3339 15.9945 10.6301C16.2413 11.1054 16.4882 11.5807 16.4882 12.1424C16.4882 13.7843 16.6228 15.4478 16.2413 17.0897C15.4111 20.676 11.5517 23.3765 7.75955 23.0956C3.49622 22.7932 -0.295907 19.3798 0.0182332 14.2596C0.0406718 13.7627 0.085549 13.2658 0.377251 12.8337C0.489444 12.6609 0.422128 12.5529 0.354812 12.4017C-0.56517 10.5437 0.624075 8.68579 2.77818 8.64258C3.56353 8.64258 4.37132 8.66418 5.26886 8.66418ZM8.85904 10.09C8.63465 10.09 8.38783 10.1116 8.16344 10.1116C6.34592 10.1116 4.55083 10.1116 2.7333 10.1116C2.17234 10.1116 1.72357 10.4141 1.58893 10.8678C1.4543 11.3215 1.5665 11.7319 1.94795 12.0344C2.21722 12.2504 2.53136 12.272 2.8455 12.272C4.16937 12.272 5.49325 12.2504 6.81713 12.272C8.50002 12.3153 9.77902 13.6115 9.75658 15.1886C9.73415 16.7657 8.45515 18.0187 6.83957 18.0619C5.20155 18.1051 3.85523 16.8737 3.78792 15.275C3.76548 14.8645 3.81036 14.454 3.76548 14.0436C3.7206 13.4387 3.22695 13.0066 2.64355 13.0066C2.03771 13.0066 1.5665 13.4387 1.54406 14.0652C1.49918 14.8429 1.52162 15.6207 1.65625 16.3768C2.23965 19.4014 4.9996 21.6266 8.23076 21.6698C11.417 21.713 14.2667 19.5094 14.895 16.4848C15.1194 15.383 14.9848 14.2596 15.0521 13.1362C15.097 12.3153 14.895 11.6023 14.4911 10.8678C12.898 7.99446 11.3497 5.12113 9.80146 2.2262C9.62195 1.88053 9.39757 1.57808 8.97123 1.49166C8.52246 1.38364 8.11857 1.49166 7.82687 1.85893C7.53516 2.2262 7.51272 2.65828 7.73711 3.06875C8.36539 4.27857 9.01611 5.4884 9.62195 6.71982C9.86878 7.21671 10.2054 7.6704 10.3175 8.2105C10.1156 8.16729 10.0258 8.01606 9.91365 7.88644C8.79172 6.91426 7.75955 5.92048 6.72737 4.92669C6.5703 4.77547 6.39079 4.62424 6.18885 4.49461C5.71764 4.21376 5.22399 4.27857 4.82009 4.66745C4.46108 5.01311 4.39376 5.5316 4.66302 5.94208C4.77522 6.13652 4.95472 6.28774 5.11179 6.43897C6.36836 7.6704 7.62492 8.88022 8.85904 10.09ZM5.2913 14.6053C5.2913 14.8213 5.26886 15.059 5.2913 15.275C5.33618 15.9879 5.96446 16.5496 6.6825 16.5928C7.44541 16.636 8.09613 16.1392 8.23076 15.383C8.36539 14.7133 7.93906 14.0436 7.2659 13.8059C6.92932 13.6763 6.5703 13.6979 6.21129 13.6979C5.26887 13.6979 5.26886 13.6979 5.2913 14.6053Z" fill="#199AE3"/>
    <path d="M10.2501 8.23211C10.1154 7.69201 9.80129 7.23833 9.55446 6.74144C8.94862 5.51001 8.2979 4.30019 7.66962 3.09037C7.44524 2.67989 7.46767 2.24781 7.75938 1.88054C8.05108 1.51328 8.45497 1.40526 8.90375 1.51328C9.33008 1.59969 9.55446 1.90215 9.73397 2.24781C11.3047 5.12114 12.8305 8.01607 14.4236 10.8894C14.8275 11.6239 15.0295 12.3369 14.9846 13.1578C14.9173 14.2812 15.0744 15.4046 14.8275 16.5064C14.1993 19.5094 11.3496 21.7346 8.16327 21.6914C4.97699 21.6266 2.21704 19.4014 1.65608 16.3768C1.49901 15.5991 1.49901 14.8429 1.54389 14.0652C1.56632 13.4387 2.03753 13.0066 2.64338 13.0066C3.22678 13.0066 3.72043 13.4171 3.76531 14.0436C3.81018 14.4541 3.76531 14.8645 3.78775 15.275C3.85506 16.8737 5.20138 18.1051 6.83939 18.0619C8.45497 18.0187 9.73397 16.7657 9.75641 15.1886C9.77885 13.6115 8.49985 12.3153 6.81696 12.2721C5.49308 12.2505 4.1692 12.2721 2.84532 12.2721C2.50875 12.2721 2.1946 12.2288 1.94778 12.0344C1.56632 11.732 1.45413 11.3215 1.58876 10.8678C1.72339 10.4141 2.17217 10.1117 2.73313 10.1117C4.55066 10.1117 6.34575 10.1117 8.16327 10.1117C8.38766 10.1117 8.63448 10.1117 8.85887 10.0901C9.64422 10.0901 10.4296 10.0901 11.3047 10.0901C10.8335 9.44193 10.7661 8.729 10.2501 8.23211Z" fill="#D5EAF7"/>
    <path d="M10.2503 8.23204C10.7664 8.72893 10.8337 9.46347 11.305 10.09C10.4299 10.09 9.6445 10.09 8.85915 10.09C7.62503 8.88016 6.3909 7.67034 5.15678 6.46051C4.99971 6.30929 4.8202 6.13646 4.70801 5.96362C4.43875 5.55315 4.50606 5.03465 4.86508 4.68899C5.26897 4.30012 5.76262 4.23531 6.23383 4.51616C6.43578 4.62418 6.59285 4.79701 6.77236 4.94824C7.80454 5.94202 8.83671 6.9358 9.89132 7.92959C9.95864 8.03761 10.0484 8.18883 10.2503 8.23204Z" fill="#8DD6FF"/>
</svg>
