<svg width="52" height="72" viewBox="0 0 52 72" fill="none" xmlns="http://www.w3.org/2000/svg">
<path d="M17.1304 26.8164C15.2552 24.8104 13.2412 23.3394 11.7827 21.4002C8.37973 16.9871 10.5327 10.8354 15.9497 9.29746C17.0609 8.96313 18.5888 9.43119 19.2833 8.8294C19.9778 8.16073 19.4222 6.68968 19.7694 5.61982C20.9501 2.54397 23.0336 0.671719 26.2977 0.13679C29.909 -0.465006 32.7565 0.939184 34.4927 3.94816C37.6874 9.56492 40.6737 15.2486 43.7989 20.8653C45.9519 24.8773 48.1743 28.8893 50.3272 32.9012C51.0911 34.3723 51.8551 35.8433 51.8551 37.5819C51.8551 42.6637 52.2718 47.8124 51.0911 52.8942C48.5215 63.994 36.5762 72.3523 24.8392 71.483C11.6438 70.5469 -0.0931046 59.982 0.879187 44.1348C0.948637 42.5968 1.08754 41.0589 1.99038 39.7216C2.33763 39.1867 2.12928 38.8523 1.92093 38.3843C-0.926498 32.6338 2.75432 26.8833 9.42147 26.7495C11.8522 26.7495 14.3524 26.8164 17.1304 26.8164ZM28.2423 31.2296C27.5478 31.2296 26.7838 31.2964 26.0893 31.2964C20.4639 31.2964 14.908 31.2964 9.28257 31.2964C7.54633 31.2964 6.15734 32.2326 5.74065 33.6368C5.32395 35.0409 5.6712 36.3114 6.85184 37.2475C7.68523 37.9162 8.65752 37.9831 9.62982 37.9831C13.7273 37.9831 17.8248 37.9162 21.9224 37.9831C27.1311 38.1168 31.0897 42.1288 31.0202 47.01C30.9508 51.8912 26.9922 55.7695 21.9918 55.9032C16.922 56.0369 12.755 52.2256 12.5467 47.2775C12.4772 46.007 12.6161 44.7365 12.4772 43.4661C12.3383 41.5938 10.8105 40.2565 9.00477 40.2565C7.12964 40.2565 5.6712 41.5938 5.60175 43.533C5.46285 45.9401 5.5323 48.3473 5.949 50.6876C7.75468 60.0489 16.297 66.9361 26.2977 67.0699C36.1595 67.2036 44.9796 60.3832 46.9242 51.022C47.6187 47.6118 47.202 44.1348 47.4103 40.6577C47.5492 38.1168 46.9242 35.9102 45.6741 33.6368C40.7432 24.7436 35.9511 15.8503 31.1591 6.89028C30.6035 5.82042 29.909 4.88429 28.5895 4.61683C27.2005 4.28249 25.9504 4.61683 25.0476 5.75355C24.1447 6.89028 24.0753 8.2276 24.7698 9.49806C26.7144 13.2426 28.7284 16.9871 30.6035 20.7984C31.3675 22.3364 32.4092 23.7406 32.7565 25.4122C32.1314 25.2785 31.8536 24.8104 31.5064 24.4092C28.0339 21.4002 24.8392 18.3244 21.6446 15.2486C21.1584 14.7805 20.6028 14.3124 19.9778 13.9112C18.5193 13.042 16.9915 13.2426 15.7414 14.4462C14.6302 15.516 14.4218 17.1208 15.2552 18.3913C15.6025 18.9931 16.1581 19.4611 16.6442 19.9292C20.5334 23.7406 24.4225 27.4851 28.2423 31.2296ZM17.1998 45.2046C17.1998 45.8733 17.1304 46.6088 17.1998 47.2775C17.3387 49.484 19.2833 51.2226 21.5057 51.3563C23.8669 51.49 25.881 49.9521 26.2977 47.6118C26.7144 45.5389 25.3948 43.4661 23.3114 42.7306C22.2696 42.3294 21.1584 42.3962 20.0472 42.3962C17.1304 42.3962 17.1304 42.3962 17.1998 45.2046Z" fill="#188ACB"/>
<path d="M32.5478 25.479C32.1311 23.8074 31.1588 22.4032 30.3948 20.8653C28.5197 17.0539 26.5057 13.3094 24.5611 9.56489C23.8666 8.29444 23.936 6.95711 24.8389 5.82039C25.7417 4.68366 26.9918 4.34933 28.3808 4.68366C29.7003 4.95113 30.3948 5.88725 30.9504 6.95711C35.8119 15.8503 40.5345 24.8104 45.4654 33.7036C46.7155 35.977 47.3405 38.1836 47.2016 40.7245C46.9933 44.2016 47.4794 47.6786 46.7155 51.0888C44.7709 60.3832 35.9508 67.2704 26.089 67.1367C16.2272 66.9361 7.68488 60.0489 5.94864 50.6876C5.4625 48.2804 5.4625 45.9401 5.6014 43.5329C5.67085 41.5938 7.12928 40.2565 9.00442 40.2565C10.8101 40.2565 12.338 41.5269 12.4769 43.4661C12.6158 44.7365 12.4769 46.007 12.5463 47.2774C12.7547 52.2255 16.9217 56.0369 21.9915 55.9032C26.9918 55.7694 30.9504 51.8912 31.0199 47.01C31.0893 42.1287 27.1307 38.1168 21.922 37.983C17.8245 37.9162 13.727 37.983 9.62946 37.983C8.58772 37.983 7.61543 37.8493 6.85149 37.2475C5.67085 36.3114 5.3236 35.0409 5.7403 33.6367C6.15699 32.2325 7.54598 31.2964 9.28222 31.2964C14.9076 31.2964 20.4636 31.2964 26.089 31.2964C26.7835 31.2964 27.5474 31.2964 28.2419 31.2295C30.6726 31.2295 33.1034 31.2295 35.8119 31.2295C34.3535 29.2236 34.1451 27.017 32.5478 25.479Z" fill="white"/>
<path d="M32.5476 25.4788C34.1449 27.0167 34.3533 29.2902 35.8117 31.2293C33.1032 31.2293 30.6725 31.2293 28.2417 31.2293C24.422 27.4848 20.6023 23.7403 16.7826 19.9958C16.2964 19.5277 15.7408 18.9928 15.3936 18.4579C14.5602 17.1874 14.7685 15.5826 15.8797 14.5127C17.1298 13.3092 18.6577 13.1086 20.1161 13.9778C20.7412 14.3121 21.2273 14.8471 21.7829 15.3151C24.9776 18.391 28.1723 21.4668 31.4364 24.5427C31.6447 24.877 31.9225 25.3451 32.5476 25.4788Z" fill="#D5EAF7"/>
</svg>
