<svg width="255" height="261" viewBox="0 0 255 261" fill="none" xmlns="http://www.w3.org/2000/svg">
<path d="M125.257 161.747L114.209 260.896H140.712L149.249 186.465L151.648 186.298L153.266 260.896H180.774L177.817 161.747H125.257Z" fill="#D1765C"/>
<path d="M151.648 186.298L138.871 184.345" stroke="#121E35" stroke-width="1.1939" stroke-miterlimit="10" stroke-linecap="round" stroke-linejoin="round"/>
<path d="M192.658 106.454L214.865 128.047C218.771 131.841 218.882 138.034 215.2 141.996C211.517 145.901 205.436 146.236 201.418 142.721L179.323 123.472L192.658 106.454Z" fill="#FCB0A6"/>
<path d="M198.182 108.686L181.611 128.103L167.606 115.772C162.417 111.196 161.859 103.329 166.322 98.0845C170.842 92.7839 178.877 92.1144 184.177 96.6896L198.182 108.686Z" fill="#36364E"/>
<path d="M157.786 89.5477L178.542 93.9556L177.816 161.747H125.257L123.639 92.0027L143.39 90.2731L157.786 89.5477Z" fill="#36364E"/>
<path d="M178.152 127.768V109.299" stroke="#121E35" stroke-width="1.1939" stroke-miterlimit="10" stroke-linecap="round" stroke-linejoin="round"/>
<path d="M124.197 119.956V107.347" stroke="#121E35" stroke-width="1.1939" stroke-miterlimit="10" stroke-linecap="round" stroke-linejoin="round"/>
<path d="M158.734 89.7709L150.532 100.316L142.609 90.3289L158.734 89.7709Z" fill="#FCB0A6"/>
<path d="M158.734 88.2644L163.533 90.7752L158.065 101.711L152.597 97.6381L158.734 88.2644Z" fill="white"/>
<path d="M142.553 88.2644L137.141 90.831L142.888 101.711L148.3 97.4707L142.553 88.2644Z" fill="white"/>
<path d="M119.342 112.926L93.0068 107.905C87.762 106.789 84.3585 101.655 85.4186 96.3549C86.4787 90.9427 91.8351 87.4275 97.1915 88.5993L123.583 94.402L119.342 112.926Z" fill="#FCB0A6"/>
<path d="M107.625 89.771L137.141 90.8311L129.385 121.519L106.286 116.441L107.625 89.771Z" fill="#36364E"/>
<path d="M85.6973 95.2389L100.651 58.1906L108.239 58.6927L101.432 102.381L85.6973 95.2389Z" fill="#FCB0A6"/>
<path d="M108.238 58.6927L108.852 51.8856C108.964 50.3791 108.573 48.8727 107.625 47.7009L105.728 45.1901C105.728 45.1901 106.509 39.499 102.826 39.1084C102.826 39.1084 102.938 36.4302 100.818 36.7092C98.6974 36.9882 98.9764 41.5076 98.9764 41.5076C98.9764 41.5076 95.796 42.2888 96.2982 45.7481C96.2982 45.7481 94.178 47.7567 95.5171 50.6581C95.5171 50.6581 90.2165 58.1347 102.547 64.7186L108.238 58.6927Z" fill="#FCB0A6"/>
<path d="M102.603 52.332V15.8416" stroke="#1C2238" stroke-width="1.1065" stroke-miterlimit="10"/>
<path d="M101.934 7.91865L100.929 10.9874C100.874 11.2106 100.595 11.378 100.371 11.378H97.1911C96.6331 11.378 96.3542 12.1033 96.8563 12.4381L99.4229 14.3352C99.6461 14.5025 99.7019 14.7815 99.6461 15.0047L98.6418 18.0735C98.4744 18.6314 99.0882 19.0778 99.5345 18.743L102.101 16.846C102.324 16.6786 102.603 16.6786 102.826 16.846L105.393 18.743C105.839 19.0778 106.509 18.6314 106.286 18.0735L105.281 15.0047C105.226 14.7815 105.281 14.5025 105.505 14.3352L108.071 12.4381C108.518 12.1033 108.294 11.378 107.736 11.378H104.556C104.277 11.378 104.054 11.2106 103.998 10.9874L102.994 7.91865C102.882 7.36069 102.157 7.36069 101.934 7.91865Z" fill="#FFB661"/>
<path d="M116.664 17.2922C116.943 17.2922 108.908 15.1162 108.908 15.1162" stroke="#FFB661" stroke-width="0.9783" stroke-miterlimit="10" stroke-linecap="round" stroke-linejoin="round"/>
<path d="M111.921 2.72961L106.621 8.47657" stroke="#FFB661" stroke-width="0.9783" stroke-miterlimit="10" stroke-linecap="round" stroke-linejoin="round"/>
<path d="M98.1392 7.91861L92.3364 0.999939" stroke="#FFB661" stroke-width="0.9783" stroke-miterlimit="10" stroke-linecap="round" stroke-linejoin="round"/>
<path d="M95.4612 16.1764L89.5469 18.0176" stroke="#FFB661" stroke-width="0.9783" stroke-miterlimit="10" stroke-linecap="round" stroke-linejoin="round"/>
<path d="M110.358 25.7174L107.848 21.5885" stroke="#FFB661" stroke-width="0.9783" stroke-miterlimit="10" stroke-linecap="round" stroke-linejoin="round"/>
<path d="M98.1396 21.5885L95.4614 24.7131" stroke="#FFB661" stroke-width="0.9783" stroke-miterlimit="10" stroke-linecap="round" stroke-linejoin="round"/>
<path d="M115.771 10.3736L112.758 10.82" stroke="#FFB661" stroke-width="0.9783" stroke-miterlimit="10" stroke-linecap="round" stroke-linejoin="round"/>
<path d="M90.3286 10.3736L93.2858 10.82" stroke="#FFB661" stroke-width="0.9783" stroke-miterlimit="10" stroke-linecap="round" stroke-linejoin="round"/>
<path d="M158.399 88.7666L157.785 74.8177C157.785 74.8177 154.939 76.7706 152.373 77.2727C149.806 77.7749 147.295 76.2684 147.295 76.2126C147.24 76.2126 144.282 74.4829 144.282 74.4829L142.999 88.8224L144.84 91.7796L156.781 91.2775C156.669 91.1659 158.399 88.7666 158.399 88.7666Z" fill="#FCB0A6"/>
<path d="M143.613 75.0967C143.613 75.0967 147.798 82.7407 152.764 81.6248C157.953 80.5089 158.12 73.8692 158.12 73.8692L143.613 75.0967Z" fill="#121E35"/>
<path d="M164.704 54.5639C164.704 60.255 163.923 65.165 163.142 68.6802C162.36 72.0837 160.184 74.4829 157.116 76.4358L156.558 76.7706C153.321 78.7792 149.081 78.835 145.789 76.8821C142.441 74.9293 140.098 72.3069 139.373 68.6244C138.089 61.9289 137.922 54.5639 137.922 54.5639C137.922 54.5639 136.694 40.1686 151.145 40.4475C165.541 40.7265 164.704 54.5639 164.704 54.5639Z" fill="#FCB0A6"/>
<path d="M139.428 68.0664C136.862 70.2424 131.505 61.5383 133.96 59.1949C136.415 56.8515 138.201 60.6456 138.201 60.6456L138.703 63.3796L139.428 67.0621L139.596 67.899L139.428 68.0664Z" fill="#FCB0A6"/>
<path d="M135.076 62.152C135.076 62.152 135.746 59.9202 138.145 63.8817" stroke="#1C2238" stroke-width="1.1791" stroke-miterlimit="10" stroke-linecap="round" stroke-linejoin="round"/>
<path d="M163.086 68.1222C165.652 70.2983 170.897 61.4825 168.386 59.1391C165.876 56.8515 164.202 60.7014 164.202 60.7014L163.755 63.4912L163.086 67.2295L162.918 68.0664L163.086 68.1222Z" fill="#FCB0A6"/>
<path d="M167.326 62.152C167.326 62.152 166.601 59.8644 164.257 63.8817" stroke="#1C2238" stroke-width="1.1791" stroke-miterlimit="10" stroke-linecap="round" stroke-linejoin="round"/>
<path d="M145.844 67.3969H155.832C155.832 67.3969 155.051 70.1866 150.81 70.1866C147.351 70.1866 145.844 67.3969 145.844 67.3969Z" fill="white"/>
<path d="M143.222 59.697C143.222 59.697 144.952 58.5253 146.793 59.697" stroke="#1C2238" stroke-width="1.1791" stroke-miterlimit="10" stroke-linecap="round" stroke-linejoin="round"/>
<path d="M158.733 59.697C158.733 59.697 156.892 58.5253 155.051 59.697" stroke="#1C2238" stroke-width="1.1791" stroke-miterlimit="10" stroke-linecap="round" stroke-linejoin="round"/>
<path d="M157.45 53.2805C157.45 53.2805 154.269 52.8342 154.158 54.1175C154.158 54.1175 154.102 55.0102 156.892 55.345C159.682 55.6798 160.407 55.5124 160.686 54.7312C161.021 53.8943 158.956 53.3363 157.45 53.2805Z" fill="#1C2238"/>
<path d="M144.895 53.2814C144.895 53.2814 141.715 53.393 141.827 54.6763C141.827 54.6763 141.938 55.569 144.728 55.4017C147.518 55.2343 148.187 54.9553 148.355 54.1183C148.466 53.2256 146.346 53.114 144.895 53.2814Z" fill="#1C2238"/>
<path d="M150.42 61.9847L149.862 64.4397L150.922 65.165" stroke="#1C2238" stroke-width="1.1791" stroke-miterlimit="10" stroke-linecap="round" stroke-linejoin="round"/>
<path d="M138.313 61.3151C138.313 61.3151 141.381 51.3835 139.15 44.9112C139.15 44.9112 132.175 48.3705 138.313 61.3151Z" fill="#1C2238"/>
<path d="M164.091 61.3151C164.091 61.3151 160.185 51.3835 162.417 44.9112C162.473 44.9112 169.503 47.5894 164.091 61.3151Z" fill="#1C2238"/>
<path d="M138.146 46.4177C138.146 46.4177 157.507 56.3493 164.983 48.4821C164.983 48.4821 171.121 42.2888 164.369 37.5462C157.618 32.7477 142.107 41.1729 142.107 41.1729C142.107 41.1729 138.648 41.954 138.146 46.4177Z" fill="#1C2238"/>
<path d="M138.146 46.4177C138.146 46.4177 134.519 40.0012 144.786 36.8766C144.786 36.8766 147.297 39.4432 143.726 42.791C140.155 46.1387 138.146 46.4177 138.146 46.4177Z" fill="#1C2238"/>
<path d="M88.7108 88.0971C84.6377 78.2771 84.3588 65.3883 84.3588 65.3883L71.3584 57.0747L70.5772 60.0319L70.912 56.9631L56.2377 58.1906C56.2377 58.1906 51.9415 75.1525 44.9112 79.5604C27.1124 90.6637 26.7776 101.823 40.5591 109.634C47.1988 113.428 58.079 111.978 60.9804 111.81C63.6586 112.982 68.178 113.875 75.7662 112.703C91.4448 110.36 94.123 101.042 88.7108 88.0971Z" fill="#1C2238"/>
<path d="M64.7746 188.641C65.0536 187.971 66.0579 188.083 66.2253 188.753C67.0064 191.598 67.2296 196.452 67.5644 224.462L67.1738 260.617H87.595L92.5051 210.346C92.6724 208.504 99.5911 179.323 82.1828 156H48.4822C48.4822 156 37.5463 171.344 33.529 207.054C31.1856 227.754 29.7349 249.291 28.8979 260.617H51.0488C50.993 260.617 61.5384 196.062 64.7746 188.641Z" fill="#FFB661"/>
<path d="M66.2254 188.753L66.1138 155.833" stroke="#121E35" stroke-width="1.1939" stroke-miterlimit="10" stroke-linecap="round" stroke-linejoin="round"/>
<path d="M61.3711 155.833L61.5385 177.203C61.5943 178.765 62.208 180.216 63.2681 181.388L66.0021 184.345" stroke="#121E35" stroke-width="1.1747" stroke-miterlimit="10" stroke-linecap="round" stroke-linejoin="round"/>
<path d="M74.4273 99.5353L72.6418 83.8009C72.6418 83.8009 70.8006 85.6421 68.4014 86.0885C66.0022 86.5349 63.6587 85.14 63.6029 85.0842C63.5471 85.0842 61.6501 83.4661 61.6501 83.4661L60.59 99.7026C60.59 99.87 60.59 100.037 60.5342 100.205L74.4273 99.9258C74.4273 99.87 74.4273 99.7026 74.4273 99.5353Z" fill="#D18069"/>
<path d="M60.5898 82.7965C60.5898 82.7965 64.2724 90.6079 68.6802 89.5478C73.2555 88.4877 73.2555 81.7922 73.2555 81.7922L60.5898 82.7965Z" fill="#121E35"/>
<path d="M84.4144 64.3839C84.4144 73.9808 76.9378 81.7922 67.6757 81.7922C58.4694 81.7922 50.937 73.9808 50.937 64.3839C50.937 54.7871 58.4136 48.2032 67.6757 48.2032C76.9378 48.2032 84.4144 54.7313 84.4144 64.3839Z" fill="#1C2238"/>
<path d="M80.2297 64.0491C80.2297 69.3497 79.4486 73.925 78.7232 77.2169C77.9979 80.3973 75.8776 82.6291 72.9763 84.4146L72.4183 84.7494C69.2937 86.6464 65.2765 86.7022 62.0961 84.8609C58.9157 83.0197 56.6839 80.5647 56.0144 77.1611C54.7869 70.9678 54.6195 64.0491 54.6195 64.0491C54.6195 64.0491 53.4478 50.6582 67.2293 50.8814C81.0666 51.1603 80.2297 64.0491 80.2297 64.0491Z" fill="#D18069"/>
<path d="M56.1262 76.938C53.6712 78.9466 48.5938 70.9678 50.9372 68.7918C53.2806 66.6158 55.0661 70.8562 55.0661 70.8562L55.4008 72.6417L56.1262 76.0452L56.2936 76.8264L56.1262 76.938Z" fill="#D18069"/>
<path d="M51.9976 71.6374C51.9976 71.6374 53.0019 69.4614 55.2895 73.2555" stroke="#1C2238" stroke-width="1.1791" stroke-miterlimit="10" stroke-linecap="round" stroke-linejoin="round"/>
<path d="M78.8354 76.938C81.2904 78.9466 86.3678 70.9678 84.0244 68.7918C81.6809 66.6158 79.8955 70.8562 79.8955 70.8562L79.5607 72.6417L78.8354 76.0452L78.668 76.8264L78.8354 76.938Z" fill="#D18069"/>
<path d="M82.9643 71.6374C82.9643 71.6374 81.96 69.4614 79.6724 73.2555" stroke="#1C2238" stroke-width="1.1791" stroke-miterlimit="10" stroke-linecap="round" stroke-linejoin="round"/>
<path d="M64.4951 55.2892C64.4951 55.2892 69.0146 64.2723 82.2939 66.7832C82.2939 66.7832 83.8562 50.3792 70.4653 49.0959C70.4653 49.0959 67.7871 47.7568 64.4951 55.2892Z" fill="#1C2238"/>
<path d="M69.0704 55.2892C69.0704 55.2892 64.5509 63.547 53.0012 66.7832C53.0012 66.7832 51.7737 52.7784 64.8857 49.6539C64.8857 49.7097 67.4523 48.1474 69.0704 55.2892Z" fill="#1C2238"/>
<path d="M63.1558 76.9938C63.1558 76.9938 66.0013 78.9466 70.1302 77.2728" stroke="#1C2238" stroke-width="1.1791" stroke-miterlimit="10" stroke-linecap="round" stroke-linejoin="round"/>
<path d="M71.9717 70.0193C71.9717 70.7446 72.5296 71.3026 73.255 71.3026C73.9803 71.3026 74.5383 70.7446 74.5383 70.0193C74.5383 69.2939 73.9803 68.736 73.255 68.736C72.5296 68.736 71.9717 69.2939 71.9717 70.0193Z" fill="#1C2238"/>
<path d="M61.3707 71.3026C62.0794 71.3026 62.654 70.728 62.654 70.0193C62.654 69.3105 62.0794 68.736 61.3707 68.736C60.662 68.736 60.0874 69.3105 60.0874 70.0193C60.0874 70.728 60.662 71.3026 61.3707 71.3026Z" fill="#1C2238"/>
<path d="M73.7575 64.3281C73.7575 64.3281 70.5213 63.8818 70.4097 65.1651C70.4097 65.1651 70.3539 66.0578 73.1995 66.3926C75.9893 66.7274 76.7705 66.56 77.0494 65.7788C77.3842 64.9977 75.264 64.4397 73.7575 64.3281Z" fill="#1C2238"/>
<path d="M60.9243 64.3845C60.9243 64.3845 57.6881 64.4961 57.7997 65.8352C57.7997 65.8352 57.9113 66.7279 60.7569 66.5605C63.6024 66.3931 64.272 66.1141 64.4394 65.2214C64.551 64.3287 62.4307 64.2171 60.9243 64.3845Z" fill="#1C2238"/>
<path d="M66.7273 71.9722L66.002 74.1482L67.0621 74.8178" stroke="#1C2238" stroke-width="1.1791" stroke-miterlimit="10" stroke-linecap="round" stroke-linejoin="round"/>
<path d="M87.0371 123.304C87.0371 123.304 98.0289 161.971 102.269 194.388L109.355 193.049C109.355 193.049 108.295 145.567 101.098 116.162L87.0371 123.304Z" fill="#D18069"/>
<path d="M109.3 191.431C109.3 191.431 119.957 207.165 107.18 214.251C106.343 214.698 105.283 214.53 104.669 213.805L104.613 213.693C103.943 212.856 103.999 211.685 104.725 210.959C106.566 209.118 108.965 205.324 105.115 200.302C105.115 200.302 103.051 200.804 103.386 204.878C103.497 205.938 102.604 206.83 101.544 206.719C100.819 206.663 100.261 206.161 100.094 205.435C99.4241 202.757 98.3081 196.118 102.604 192.547L109.3 191.431Z" fill="#D18069"/>
<path d="M93.8442 105.896C93.8442 105.896 103.943 109.244 105.729 125.145L89.2689 131.395L85.5864 121.296L93.8442 105.896Z" fill="#E1C8CE"/>
<path d="M39.6099 102.66C39.6099 102.66 32.5238 103.664 27.3906 121.351L41.3396 129.33L49.5415 118.004L39.6099 102.66Z" fill="#E1C8CE"/>
<path d="M41.2842 129.33C41.2842 129.33 32.0222 143.837 29.8461 146.459C27.5585 149.138 24.155 150.477 21.142 148.635C18.4638 146.962 17.4595 143.502 18.7986 140.657L28.3954 121.909L41.2842 129.33Z" fill="#D18069"/>
<path d="M18.9663 102.66L19.2453 94.2346C19.3569 92.8398 18.9663 91.3891 18.1294 90.2731L16.3439 87.8739C16.3439 87.8739 17.0693 82.4617 13.6099 82.127C13.6099 82.127 13.7215 79.6162 11.7129 79.8951C9.70425 80.1183 9.98323 84.4146 9.98323 84.4146C9.98323 84.4146 6.97026 85.1399 7.47242 88.4319C7.47242 88.4319 5.46377 90.3289 6.74707 93.0629C6.74707 93.0629 1.72546 100.149 13.3868 106.342L18.9663 102.66Z" fill="#D18069"/>
<path d="M13.3311 94.681V60.1992" stroke="#1C2238" stroke-width="1.0462" stroke-miterlimit="10"/>
<path d="M12.7172 52.7226L11.7686 55.624C11.7128 55.8472 11.4897 56.0146 11.2107 56.0146H8.19772C7.63976 56.0146 7.41658 56.6841 7.86294 57.0189L10.318 58.8044C10.5411 58.9718 10.5969 59.1949 10.5411 59.4181L9.59261 62.3195C9.42522 62.8217 10.039 63.268 10.4295 62.9332L12.8846 61.1478C13.1077 60.9804 13.3309 60.9804 13.5541 61.1478L16.0091 62.9332C16.4555 63.268 17.0692 62.8217 16.8461 62.3195L15.8975 59.4181C15.8417 59.1949 15.8975 58.916 16.1207 58.8044L18.5757 57.0189C19.0221 56.6841 18.7989 56.0146 18.2409 56.0146H15.228C15.0048 56.0146 14.7816 55.8472 14.67 55.624L13.7215 52.7226C13.6099 52.2205 12.8846 52.2205 12.7172 52.7226Z" fill="#FFB661"/>
<path d="M26.61 61.5941C26.8332 61.5941 19.3008 59.5297 19.3008 59.5297" stroke="#FFB661" stroke-width="0.9249" stroke-miterlimit="10" stroke-linecap="round" stroke-linejoin="round"/>
<path d="M22.1471 47.8126L17.1255 53.2248" stroke="#FFB661" stroke-width="0.9249" stroke-miterlimit="10" stroke-linecap="round" stroke-linejoin="round"/>
<path d="M9.09054 52.7226L3.62256 46.1387" stroke="#FFB661" stroke-width="0.9249" stroke-miterlimit="10" stroke-linecap="round" stroke-linejoin="round"/>
<path d="M6.57957 60.534L1 62.2079" stroke="#FFB661" stroke-width="0.9249" stroke-miterlimit="10" stroke-linecap="round" stroke-linejoin="round"/>
<path d="M20.6961 69.5729L18.2969 65.6114" stroke="#FFB661" stroke-width="0.9249" stroke-miterlimit="10" stroke-linecap="round" stroke-linejoin="round"/>
<path d="M9.0904 65.6114L6.57959 68.5686" stroke="#FFB661" stroke-width="0.9249" stroke-miterlimit="10" stroke-linecap="round" stroke-linejoin="round"/>
<path d="M25.7728 55.0103L22.9272 55.4566" stroke="#FFB661" stroke-width="0.9249" stroke-miterlimit="10" stroke-linecap="round" stroke-linejoin="round"/>
<path d="M1.7251 55.0103L4.51488 55.4566" stroke="#FFB661" stroke-width="0.9249" stroke-miterlimit="10" stroke-linecap="round" stroke-linejoin="round"/>
<path d="M18.9663 102.66L30.0139 138.704L18.1852 143.837L11.0991 103.218L18.9663 102.66Z" fill="#D18069"/>
<path d="M26.1636 126.261L28.0048 132.12" stroke="#121E35" stroke-width="1.1939" stroke-miterlimit="10" stroke-linecap="round" stroke-linejoin="round"/>
<path d="M84.1353 102.158L94.0112 105.896L82.2383 150.365H48.4819L39.6104 102.66L51.2717 99.9258L84.1353 102.158Z" fill="#E1C8CE"/>
<path d="M71.1351 97.0244L84.1355 102.213C84.1355 102.213 82.629 107.347 67.3968 107.347C54.1174 107.347 51.3276 99.9816 51.3276 99.9816L63.9375 97.0802H71.1351V97.0244Z" fill="#D18069"/>
<path d="M82.2383 150.365H48.4819V156.056H82.2383V150.365Z" fill="#121E35"/>
<path d="M88.0972 128.158L90.6638 118.617" stroke="#121E35" stroke-width="1.1939" stroke-miterlimit="10" stroke-linecap="round" stroke-linejoin="round"/>
<path d="M43.9069 125.703L42.1772 117.892" stroke="#121E35" stroke-width="1.1939" stroke-miterlimit="10" stroke-linecap="round" stroke-linejoin="round"/>
<path d="M217.041 139.708L230.934 102.213L224.964 97.4708L200.637 134.352L217.041 139.708Z" fill="#FCB0A6"/>
<path d="M222.676 100.986L223.681 91.4448C224.015 89.9941 224.852 88.655 226.024 87.7623L228.591 85.9211C228.591 85.9211 229.483 80.2299 233.166 80.8994C233.166 80.8994 233.835 78.3328 235.788 79.1698C237.741 80.0625 236.179 84.303 236.179 84.303C236.179 84.303 238.969 85.9769 237.462 89.1572C237.462 89.1572 238.913 91.668 236.793 94.0672C236.793 94.0672 239.694 102.771 225.968 105.505L222.676 100.986Z" fill="#FCB0A6"/>
<path d="M229.539 93.6766L240.084 58.8043" stroke="#1C2238" stroke-width="1.1065" stroke-miterlimit="10"/>
<path d="M242.986 51.3835L243.042 54.5639C243.042 54.8429 243.209 55.066 243.488 55.1218L246.557 56.0704C247.115 56.2378 247.115 57.0189 246.557 57.1863L243.544 58.2464C243.321 58.358 243.153 58.5812 243.153 58.8044L243.209 61.9847C243.209 62.5427 242.484 62.8216 242.149 62.3753L240.196 59.8087C240.029 59.5855 239.75 59.5297 239.527 59.5855L236.514 60.6456C235.956 60.813 235.509 60.1993 235.844 59.7529L237.685 57.1305C237.853 56.9073 237.853 56.6283 237.685 56.4051L235.733 53.8385C235.398 53.3922 235.844 52.7226 236.402 52.89L239.471 53.8385C239.694 53.8943 239.973 53.8385 240.14 53.6154L241.982 50.993C242.205 50.6024 242.986 50.8256 242.986 51.3835Z" fill="#FFB661"/>
<path d="M226.191 56.1262C225.968 56.0704 234.226 56.2936 234.226 56.2936" stroke="#FFB661" stroke-width="0.9783" stroke-miterlimit="10" stroke-linecap="round" stroke-linejoin="round"/>
<path d="M234.952 43.5163L238.355 50.5466" stroke="#FFB661" stroke-width="0.9783" stroke-miterlimit="10" stroke-linecap="round" stroke-linejoin="round"/>
<path d="M246.613 52.4994L254.201 47.5336" stroke="#FFB661" stroke-width="0.9783" stroke-miterlimit="10" stroke-linecap="round" stroke-linejoin="round"/>
<path d="M246.836 61.2036L251.969 64.6071" stroke="#FFB661" stroke-width="0.9783" stroke-miterlimit="10" stroke-linecap="round" stroke-linejoin="round"/>
<path d="M229.763 66.002L233.389 62.7659" stroke="#FFB661" stroke-width="0.9783" stroke-miterlimit="10" stroke-linecap="round" stroke-linejoin="round"/>
<path d="M242.707 65.5556L244.381 69.3497" stroke="#FFB661" stroke-width="0.9783" stroke-miterlimit="10" stroke-linecap="round" stroke-linejoin="round"/>
<path d="M229.093 49.7097L231.827 50.993" stroke="#FFB661" stroke-width="0.9783" stroke-miterlimit="10" stroke-linecap="round" stroke-linejoin="round"/>
<path d="M253.42 57.1305L250.407 56.6841" stroke="#FFB661" stroke-width="0.9783" stroke-miterlimit="10" stroke-linecap="round" stroke-linejoin="round"/>
</svg>
