<svg width="238" height="256" viewBox="0 0 238 256" fill="none" xmlns="http://www.w3.org/2000/svg">
<path d="M139.241 79.3391C139.241 79.3391 122.034 92.8967 101.882 111.288C96.6961 116.003 96.1658 123.961 100.703 129.325C104.887 134.159 111.958 131.506 117.379 128.087L154.385 104.804L139.241 79.3391Z" fill="#D1765C"/>
<path d="M98.9944 147.127L99.0533 150.723C103.06 156.853 111.428 175.303 112.43 201.003C112.43 201.003 113.078 210.73 110.897 235.251C110.897 235.251 111.722 249.516 111.31 256H87.4448L81.0808 186.444L69.4723 255.823L42.7197 256C42.7197 256 46.1375 240.792 46.491 232.598C46.9624 222.047 48.082 173.417 64.0511 150.723L64.4046 147.127H98.9944Z" fill="#FFB661"/>
<path d="M99.053 150.723H64.0508" stroke="#121E35" stroke-width="1.1939" stroke-miterlimit="10" stroke-linecap="round" stroke-linejoin="round"/>
<path d="M81.0806 186.444V150.723" stroke="#121E35" stroke-width="1.1939" stroke-miterlimit="10" stroke-linecap="round" stroke-linejoin="round"/>
<path d="M76.0718 150.723L76.1307 174.419C76.1896 176.128 76.8378 177.72 77.9574 178.958L80.8448 182.2" stroke="#121E35" stroke-width="1.1939" stroke-miterlimit="10" stroke-linecap="round" stroke-linejoin="round"/>
<path d="M88.1517 93.9577L104.71 96.9639C107.126 97.6124 108.717 99.9112 108.422 102.446L98.9942 147.127H64.4044L53.9745 103.33C53.6798 100.795 55.2709 98.4965 57.7458 97.8481L74.1862 93.7219L88.1517 93.9577Z" fill="white"/>
<path d="M92.6298 94.783C92.6298 94.783 82.4356 105.334 68.7646 95.0777" stroke="#FAEFEB" stroke-width="1.9694" stroke-miterlimit="10" stroke-linecap="round" stroke-linejoin="round"/>
<path d="M88.1518 117.418L74.6577 130.799" stroke="#FAEFEB" stroke-width="1.9694" stroke-miterlimit="10" stroke-linecap="round" stroke-linejoin="round"/>
<path d="M64.1098 96.905C57.4511 95.4903 48.2586 95.5492 42.9552 104.391C37.2983 113.94 23.097 130.74 19.6204 144.239C17.4401 152.786 25.9255 161.333 36.1198 161.392C40.1857 161.392 43.3677 156.794 44.7819 154.79C48.0229 150.192 59.8671 125.258 66.8204 110.521" fill="#E1C8CE"/>
<path d="M17.6759 106.69C17.6759 106.69 23.6274 107.338 24.6292 99.8523L26.397 88.4168C26.5148 87.4147 25.7488 86.4716 24.747 86.4716C24.0399 86.4716 23.3917 86.8842 23.156 87.5326L20.74 93.0146L17.4991 78.2191C17.3223 77.0992 16.1438 76.3918 15.0831 76.8045C14.2582 77.0992 13.7278 77.9244 13.8457 78.8086L15.3778 88.8884L14.9063 89.1241L11.8422 78.9265C11.4297 77.8655 10.1333 77.4529 9.19048 78.1013C8.48337 78.5728 8.18874 79.457 8.48337 80.2823L11.0172 90.5978L10.4869 90.9515L6.71558 82.2275C6.30309 81.5201 5.36027 81.2843 4.65316 81.697C4.00497 82.1096 3.76926 82.9348 4.12282 83.6422L7.54055 93.1914L7.06914 93.5451L3.23893 85.4695C2.70859 84.8211 1.76577 84.8211 1.23543 85.4695C0.881872 85.9411 0.822945 86.5895 1.1765 87.061L5.30135 96.6103C5.30135 96.6103 7.54055 106.926 12.7261 107.221L17.6759 106.69Z" fill="#EBAEA3"/>
<path d="M27.5755 109.284L23.981 102.446L11.4297 107.692L14.8474 115.473L27.5755 109.284Z" fill="white"/>
<path d="M44.4871 143.001L30.3448 109.696C29.1074 107.338 26.161 106.454 23.8629 107.692L14.6704 112.526C12.4901 113.646 11.5473 116.239 12.4312 118.538L20.4452 151.607C22.4487 156.971 29.5198 160.861 35 159.27C41.3051 157.442 47.0799 149.013 44.4871 143.001Z" fill="#E1C8CE"/>
<path d="M33.5859 117.418L40.3625 133.393" stroke="#121E35" stroke-width="1.1939" stroke-miterlimit="10" stroke-linecap="round" stroke-linejoin="round"/>
<path d="M67.8224 94.4293C67.8224 94.4293 72.6544 156.028 72.4187 176.069L49.4374 177.012C49.4374 177.012 50.9106 128.323 48.7303 103.33C48.4946 100.501 50.3802 97.3176 53.2087 96.7281C56.6264 95.9619 61.6941 95.4903 67.8224 94.4293Z" fill="#E1C8CE"/>
<path d="M49.3784 112.526V146.596" stroke="#121E35" stroke-width="1.1939" stroke-miterlimit="10" stroke-linecap="round" stroke-linejoin="round"/>
<path d="M93.5142 120.424C93.5142 120.424 104.651 89.3009 118.97 99.2628C128.045 105.629 147.962 115.001 156.683 125.847C162.222 132.685 158.039 144.062 148.787 148.306C145.134 150.015 140.302 147.127 138.18 145.889C131.227 141.822 93.5142 120.424 93.5142 120.424Z" fill="#E1C8CE"/>
<path d="M93.2783 94.4293C93.2783 94.4293 89.0356 135.632 91.157 175.303L112.135 177.602C112.135 177.602 111.31 155.733 111.604 148.836C112.488 127.085 122.683 105.098 122.683 105.098C122.683 105.098 119.501 97.0229 110.485 96.0208L93.2783 94.4293Z" fill="#E1C8CE"/>
<path d="M106.655 170.528L97.6392 143.119" stroke="#121E35" stroke-width="1.1939" stroke-miterlimit="10" stroke-linecap="round" stroke-linejoin="round"/>
<path d="M113.785 131.978C113.785 131.978 115.199 118.184 116.319 112.702" stroke="#121E35" stroke-width="1.1939" stroke-miterlimit="10" stroke-linecap="round" stroke-linejoin="round"/>
<path d="M83.8331 40.0963C88.1087 38.3425 90.1534 33.4534 88.4001 29.1764C86.6468 24.8994 81.7594 22.854 77.4838 24.6079C73.2082 26.3618 71.1635 31.2508 72.9168 35.5278C74.6701 39.8048 79.5575 41.8502 83.8331 40.0963Z" fill="#773E50"/>
<path d="M63.0488 53.8745C63.0488 64.0132 70.945 72.2067 80.6089 72.2067C90.2728 72.2067 98.2279 64.0132 98.2279 53.8745C98.2279 43.7358 90.3317 36.8391 80.6678 36.8391C71.0039 36.8391 63.0488 43.7947 63.0488 53.8745Z" fill="#773E50"/>
<path d="M93.396 69.0236C96.0477 71.3225 101.705 62.1859 99.1119 59.7102C96.5191 57.2344 94.6924 61.2427 94.6924 61.2427L94.1621 64.1311L93.396 68.0215L93.2192 68.9057L93.396 69.0236Z" fill="#EBAEA3"/>
<path d="M97.9332 62.7753C97.9332 62.7753 96.8136 60.4175 94.2798 64.5437" stroke="#1C2238" stroke-width="1.2225" stroke-miterlimit="10" stroke-linecap="round" stroke-linejoin="round"/>
<path d="M93.9264 79.6928C96.5781 79.3981 98.6995 77.2171 98.9941 74.5645C99.3476 71.6762 97.5209 69.2005 94.9871 68.3752C94.8103 68.3163 94.7514 68.1984 94.7514 68.0215C94.7514 67.7857 94.9871 67.6089 95.2228 67.6679C98.0513 68.611 100.055 71.3815 99.7012 74.6235C99.4066 77.5708 97.0495 79.9875 94.1032 80.4002C90.8622 80.8128 88.3284 79.2802 87.3267 76.5097C87.5624 76.3919 87.9159 76.1561 87.9159 76.1561C88.682 78.6907 90.9801 80.0465 93.9264 79.6928Z" fill="white"/>
<path d="M68.5291 69.0825C65.8184 71.3225 60.3383 62.068 62.99 59.6512C65.6417 57.2344 67.4095 61.3017 67.4095 61.3017L67.8809 64.19L68.588 68.0805L68.7648 68.9647L68.5291 69.0825Z" fill="#EBAEA3"/>
<path d="M64.0508 62.7753C64.0508 62.7753 65.1704 60.4175 67.6453 64.6026" stroke="#1C2238" stroke-width="1.2225" stroke-miterlimit="10" stroke-linecap="round" stroke-linejoin="round"/>
<path d="M68.3523 79.6928C65.7007 79.3981 63.5793 77.2171 63.2847 74.5645C62.9311 71.6762 64.7578 69.2004 67.2917 68.3752C67.4684 68.3162 67.5274 68.1983 67.5274 68.0215C67.5274 67.7857 67.2917 67.6089 67.056 67.6678C64.2275 68.611 62.224 71.3814 62.5776 74.6234C62.8722 77.5707 65.2292 79.9875 68.1756 80.4001C71.4165 80.8128 73.9503 79.2802 74.9521 76.5097C74.7164 76.3918 74.3628 76.156 74.3628 76.156C73.5968 78.6907 71.2397 80.0465 68.3523 79.6928Z" fill="white"/>
<path d="M75.1879 76.215C75.1879 76.215 77.0736 76.2739 79.7252 76.7455C82.3769 77.2171 84.5572 75.8613 85.0875 77.6297C85.0875 77.6886 87.2678 75.8613 87.2678 75.8613L88.9177 94.1345C88.9177 94.1345 80.7859 98.4376 73.1255 93.8987L75.1879 76.215Z" fill="#EBAEA3"/>
<path d="M74.0684 73.9161C74.0684 73.9161 75.2469 78.8086 80.3146 81.2254C83.7912 82.8759 87.7393 79.9875 87.2679 76.156L86.7964 72.0888L74.0684 73.9161Z" fill="#1C2238"/>
<path d="M66.8792 54.2282C66.8792 60.0049 67.7041 64.9563 68.5291 68.4931C69.3541 71.9709 71.6522 74.3877 74.8931 76.2739L75.4824 76.6276C78.9001 78.6907 83.3196 78.7497 86.7963 76.7455C90.3318 74.7413 92.7478 72.0888 93.5139 68.4341C94.8692 61.7143 95.046 54.2282 95.046 54.2282C95.046 54.2282 96.3423 39.6685 81.1393 39.9632C65.9363 40.258 66.8792 54.2282 66.8792 54.2282Z" fill="#EBAEA3"/>
<path d="M86.1479 60.6533C86.1479 61.4196 86.7372 62.0091 87.5033 62.0091C88.2693 62.0091 88.8586 61.4196 88.8586 60.6533C88.8586 59.887 88.2693 59.2976 87.5033 59.2976C86.7372 59.2386 86.1479 59.887 86.1479 60.6533Z" fill="#1C2238"/>
<path d="M73.5376 60.6533C73.5376 61.4196 74.1269 62.0091 74.8929 62.0091C75.6589 62.0091 76.2482 61.4196 76.2482 60.6533C76.2482 59.887 75.6589 59.2976 74.8929 59.2976C74.1269 59.2386 73.5376 59.887 73.5376 60.6533Z" fill="#1C2238"/>
<path d="M87.9746 54.6408C87.9746 54.6408 84.5569 54.1692 84.439 55.525C84.439 55.525 84.3801 56.4681 87.3854 56.8218C90.3906 57.1755 91.1567 56.9986 91.4513 56.1734C91.8048 55.3482 89.5656 54.7587 87.9746 54.6408Z" fill="#1C2238"/>
<path d="M74.4215 54.6408C74.4215 54.6408 71.0038 54.7587 71.1216 56.1734C71.1216 56.1734 71.2395 57.1165 74.2447 56.9397C77.25 56.7629 77.9571 56.4681 78.1339 55.525C78.3107 54.6408 76.0125 54.464 74.4215 54.6408Z" fill="#1C2238"/>
<path d="M80.6087 62.7164L79.7837 64.9563L80.9622 65.7226" stroke="#1C2238" stroke-width="1.2026" stroke-miterlimit="10" stroke-linecap="round" stroke-linejoin="round"/>
<path d="M76.7197 67.8447H85.323C85.323 67.8447 84.7926 70.9688 80.9035 70.9688C77.0733 70.9688 76.7197 67.8447 76.7197 67.8447Z" fill="white"/>
<path d="M73.3608 52.9903H63.9326C63.9326 52.9903 64.8754 37.9591 82.1998 39.0201C82.1998 39.0201 96.46 39.197 96.1064 52.9903H74.5983L74.0679 49.3946L73.3608 52.9903Z" fill="#773E50"/>
<path d="M96.6372 58.8849L94.3979 62.7164L95.0461 52.9903L96.6372 58.8849Z" fill="#773E50"/>
<path d="M65.1113 58.8849L67.4094 62.7164L66.8791 52.9903L65.1113 58.8849Z" fill="#773E50"/>
<path d="M158.392 232.716L163.283 184.44L134.055 178.486L134.409 224.936C134.468 229.769 134.821 234.603 135.646 239.436L138.298 255.941H161.22L158.392 232.716Z" fill="#36364E"/>
<path d="M194.808 256L189.387 151.489L163.283 184.44L170.649 256H194.808Z" fill="#36364E"/>
<path d="M135.47 153.08L130.107 185.854C130.107 185.854 160.396 204.776 197.991 192.221L190.153 153.611L135.47 153.08Z" fill="white"/>
<path d="M155.269 68.4341C155.505 64.6616 155.623 61.4785 155.623 61.4785C155.623 61.4785 158.51 63.4827 161.162 64.0132C163.813 64.4847 166.347 62.9522 166.347 62.9522C166.406 62.9522 169.411 61.1838 169.411 61.1838C169.411 61.1838 169.47 61.8322 169.529 62.9522C169.706 65.6637 170.001 71.0277 170.236 75.095C168.292 77.8655 165.287 80.0465 160.808 80.518C160.631 80.518 160.514 80.577 160.337 80.577C159.276 80.6359 158.333 80.6359 157.508 80.577C156.271 80.4591 155.328 80.2233 154.562 79.8696C154.739 77.8655 155.033 72.7372 155.269 68.4341Z" fill="#FCB0A6"/>
<path d="M148.139 28.6456C148.139 28.6456 139.595 35.3065 149.435 47.2136L150.967 30.8856L148.139 28.6456Z" fill="#1C2238"/>
<path d="M174.715 30.414C174.715 30.414 184.85 36.8981 173.949 48.6872L171.945 30.8856L174.715 30.414Z" fill="#1C2238"/>
<path d="M170.06 61.7143C170.06 61.7143 165.817 69.4951 160.691 68.3752C155.387 67.1963 155.21 60.4175 155.21 60.4175L170.06 61.7143Z" fill="#121E35"/>
<path d="M148.316 40.258C148.316 46.2115 149.141 51.3398 149.966 54.9944C150.791 58.5312 153.03 61.0659 156.271 63.07L156.86 63.4237C160.278 65.5458 164.638 65.6047 168.115 63.5416C171.592 61.4785 174.008 58.767 174.774 54.9355C176.129 47.9799 176.306 40.258 176.306 40.258C176.306 40.258 177.602 25.2857 162.517 25.5215C147.373 25.8162 148.316 40.258 148.316 40.258Z" fill="#FCB0A6"/>
<path d="M174.597 54.346C177.249 56.6449 182.847 47.5673 180.254 45.0915C177.661 42.6158 175.834 46.6241 175.834 46.6241L175.304 49.5125L174.538 53.4029L174.361 54.2871L174.597 54.346Z" fill="#FCB0A6"/>
<path d="M179.135 48.1567C179.135 48.1567 178.074 45.7989 175.54 49.9251" stroke="#121E35" stroke-width="1.2126" stroke-miterlimit="10" stroke-linecap="round" stroke-linejoin="round"/>
<path d="M149.966 54.346C147.255 56.586 141.834 47.3904 144.427 45.0326C147.019 42.6158 148.787 46.6241 148.787 46.6241L149.259 49.5125L149.966 53.4029L150.143 54.2871L149.966 54.346Z" fill="#FCB0A6"/>
<path d="M145.546 48.0978C145.546 48.0978 146.666 45.74 149.141 49.9251" stroke="#121E35" stroke-width="1.2126" stroke-miterlimit="10" stroke-linecap="round" stroke-linejoin="round"/>
<path d="M167.585 52.1061C167.585 52.1061 164.815 55.1713 159.807 54.0513" stroke="#121E35" stroke-width="1.1928" stroke-miterlimit="10" stroke-linecap="round" stroke-linejoin="round"/>
<path d="M167.113 45.3273C167.113 46.0936 167.703 46.6831 168.469 46.6831C169.235 46.6831 169.824 46.0936 169.824 45.3273C169.824 44.561 169.235 43.9716 168.469 43.9716C167.703 43.9716 167.113 44.62 167.113 45.3273Z" fill="#1C2238"/>
<path d="M154.621 45.3273C154.621 46.0936 155.21 46.6831 155.976 46.6831C156.742 46.6831 157.332 46.0936 157.332 45.3273C157.332 44.561 156.742 43.9716 155.976 43.9716C155.21 43.9716 154.621 44.62 154.621 45.3273Z" fill="#1C2238"/>
<path d="M168.94 39.4327C168.94 39.4327 165.581 38.9612 165.463 40.3169C165.463 40.3169 165.405 41.2601 168.351 41.6137C171.297 41.9674 172.063 41.7906 172.417 40.9653C172.711 40.0811 170.531 39.5506 168.94 39.4327Z" fill="#1C2238"/>
<path d="M155.505 39.4327C155.505 39.4327 152.087 39.5506 152.205 40.9653C152.205 40.9653 152.323 41.9085 155.269 41.7316C158.216 41.5548 158.982 41.2601 159.158 40.3759C159.335 39.4327 157.096 39.2559 155.505 39.4327Z" fill="#1C2238"/>
<path d="M161.634 47.3904L160.809 49.6893L161.987 50.3967" stroke="#1C2238" stroke-width="1.1919" stroke-miterlimit="10" stroke-linecap="round" stroke-linejoin="round"/>
<path d="M148.846 33.656C148.846 33.656 151.557 28.7635 156.448 31.475C161.339 34.1865 166.171 36.7801 174.951 34.6581L173.772 28.7046C173.772 28.7046 161.633 15.7954 148.021 28.7046L148.846 33.656Z" fill="#1C2238"/>
<path d="M148.139 28.6456C148.139 28.6456 148.905 19.6859 161.574 18.9196C174.244 18.1533 178.015 24.8731 178.015 24.8731L175.717 25.2857C175.717 25.2857 180.136 27.172 181.315 29.0583L178.84 29.9424L182.14 32.8897C182.14 32.8897 171.828 36.8981 166.112 34.776L161.398 27.5846L148.139 28.6456Z" fill="#1C2238"/>
<path d="M196.4 88.0631L193.1 81.2254C191.744 79.6928 189.918 78.5728 187.914 78.0423L170.06 74.4466L154.621 75.0361L141.421 78.337C138.593 79.0444 136.471 81.3433 136.059 84.2316C134.114 97.3176 130.815 134.041 131.993 152.078C132.288 156.558 133.761 160.331 138.121 161.392C148.316 163.809 168.115 167.699 184.379 165.459C190.33 164.634 194.632 159.447 194.514 153.434L193.335 105.098L194.573 95.2545C195.28 93.1324 198.285 89.3599 196.4 88.0631Z" fill="#D1765C"/>
<path d="M133.525 108.164L134.762 93.7219" stroke="#121E35" stroke-width="1.1928" stroke-miterlimit="10" stroke-linecap="round" stroke-linejoin="round"/>
<path d="M150.143 75.9792L154.621 75.095L170.06 74.5056L177.308 75.9203C177.308 75.9203 176.129 85.2337 161.928 85.1158C147.727 84.9979 150.143 75.9792 150.143 75.9792Z" fill="#FCB0A6"/>
<path d="M192.157 80.3412C192.157 80.3412 209.186 93.8398 229.28 112.231C234.466 116.947 234.996 124.904 230.459 130.268C226.275 135.102 219.204 132.449 213.783 129.031L176.777 105.747L192.157 80.3412Z" fill="#D1765C"/>
<path d="M194.042 116.888L183.318 109.46" stroke="#121E35" stroke-width="1.1928" stroke-miterlimit="10" stroke-linecap="round" stroke-linejoin="round"/>
<path d="M216.965 62.2448L216.316 55.0534C216.199 53.4619 216.611 51.8703 217.613 50.6325L219.616 47.9799C219.616 47.9799 218.791 41.9674 222.68 41.5548C222.68 41.5548 222.563 38.7254 224.802 39.0201C227.041 39.3149 226.746 44.0895 226.746 44.0895C226.746 44.0895 230.105 44.9147 229.575 48.5694C229.575 48.5694 231.814 50.6914 230.4 53.7566C230.4 53.7566 235.998 61.6553 222.975 68.611L216.965 62.2448Z" fill="#FCB0A6"/>
<path d="M222.916 55.525V16.9743" stroke="#1C2238" stroke-width="1.1065" stroke-miterlimit="10"/>
<path d="M223.564 8.60402L224.625 11.846C224.684 12.0818 224.978 12.2587 225.214 12.2587H228.573C229.162 12.2587 229.457 13.025 228.926 13.3786L226.216 15.3828C225.98 15.5596 225.921 15.8544 225.98 16.0902L227.041 19.3322C227.218 19.9216 226.569 20.3932 226.098 20.0395L223.387 18.0354C223.152 17.8585 222.857 17.8585 222.621 18.0354L219.911 20.0395C219.439 20.3932 218.732 19.9216 218.968 19.3322L220.029 16.0902C220.088 15.8544 220.029 15.5596 219.793 15.3828L217.082 13.3786C216.611 13.025 216.847 12.2587 217.436 12.2587H220.795C221.089 12.2587 221.325 12.0818 221.384 11.846L222.445 8.60402C222.562 8.01456 223.387 8.01456 223.564 8.60402Z" fill="#FFB661"/>
<path d="M208.067 18.507C207.772 18.507 216.257 16.2081 216.257 16.2081" stroke="#FFB661" stroke-width="0.9783" stroke-miterlimit="10" stroke-linecap="round" stroke-linejoin="round"/>
<path d="M213.075 3.12207L218.614 9.1935" stroke="#FFB661" stroke-width="0.9783" stroke-miterlimit="10" stroke-linecap="round" stroke-linejoin="round"/>
<path d="M227.63 8.60403L233.758 1.29474" stroke="#FFB661" stroke-width="0.9783" stroke-miterlimit="10" stroke-linecap="round" stroke-linejoin="round"/>
<path d="M230.458 17.328L236.705 19.2732" stroke="#FFB661" stroke-width="0.9783" stroke-miterlimit="10" stroke-linecap="round" stroke-linejoin="round"/>
<path d="M214.726 27.4078L217.377 23.0458" stroke="#FFB661" stroke-width="0.9783" stroke-miterlimit="10" stroke-linecap="round" stroke-linejoin="round"/>
<path d="M227.63 23.0458L230.458 26.3467" stroke="#FFB661" stroke-width="0.9783" stroke-miterlimit="10" stroke-linecap="round" stroke-linejoin="round"/>
<path d="M209.009 11.1977L212.191 11.6692" stroke="#FFB661" stroke-width="0.9783" stroke-miterlimit="10" stroke-linecap="round" stroke-linejoin="round"/>
<path d="M235.88 11.1977L232.698 11.6692" stroke="#FFB661" stroke-width="0.9783" stroke-miterlimit="10" stroke-linecap="round" stroke-linejoin="round"/>
<path d="M216.964 62.2448V78.8086L228.632 80.9307L224.978 60.2407L216.964 62.2448Z" fill="#FCB0A6"/>
<path d="M229.28 79.3391L229.045 70.6151H215.433L215.609 79.1033L229.28 79.3391Z" fill="white"/>
<path d="M233.523 121.544L232.344 80.2823C232.05 77.6297 230.518 75.9203 227.1 75.9792L216.493 76.2739C214.077 76.5097 212.191 78.5139 212.074 80.9307L208.479 117.536C208.243 123.254 213.311 129.561 219.027 130.209C225.568 131.035 233.641 128.087 233.523 121.544Z" fill="#D1765C"/>
<path d="M210.6 96.1976L209.009 110.875" stroke="#121E35" stroke-width="1.1928" stroke-miterlimit="10" stroke-linecap="round" stroke-linejoin="round"/>
</svg>
